<svg xmlns="http://www.w3.org/2000/svg" viewBox="0 0 213.51927 128.24385">
  <path transform="translate(-39.521619,12.211658)" fill="#00a5ff" d="M 39.521619,-12.211658 V 116.03219 H 69.838631 V 31.024463 l 23.340694,54.863318 h 21.962485 l 23.34018,-54.863318 v 85.007727 h 0.009 32.03008 8.10545 c 8.84241,0 17.16789,-0.60289 24.97677,-1.80867 7.8663,-1.2632 15.12989,-4.04816 21.7904,-8.35453 7.98114,-5.05281 14.58408,-12.28751 19.80913,-21.704101 5.22506,-9.47401 7.83777,-20.182177 7.83777,-32.125171 0,-12.40234 -2.44046,-23.16827 -7.321,-32.297771 -4.88056,-9.186918 -11.54125,-16.4793859 -19.98173,-21.8767004 -6.89019,-4.4212045 -14.26827,-7.2056471 -22.13457,-8.3540116 -7.8663,-1.148365 -16.30678,-1.722893 -25.32145,-1.722893 h -7.76077 -32.03008 -5.09065 L 105.0649,51.091972 76.642867,-12.211658 Z M 170.70276,11.7321 h 0.60306 c 6.66052,0 12.37381,0.114492 17.13953,0.344165 4.82312,0.229674 9.41624,1.550467 13.78003,3.962033 6.02892,3.387676 10.47918,8.095804 13.35009,14.124719 2.92833,5.971497 4.3925,13.177838 4.3925,21.618318 0,8.440481 -1.37804,15.589059 -4.13412,21.44572 -2.75607,5.85666 -6.77569,10.449779 -12.05817,13.780037 -4.47863,2.813494 -9.21564,4.363788 -14.21102,4.650879 -4.93797,0.229673 -11.02414,0.344682 -18.25884,0.344682 h -0.60306 z"/>
</svg>
